<svg width="512" height="512" viewBox="0 0 512 512" fill="none" xmlns="http://www.w3.org/2000/svg">
<rect width="512" height="512" rx="120" fill="url(#paint0_linear_32_2)"/>
<g filter="url(#filter0_d_32_2)">
<circle cx="257.5" cy="266.5" r="188.5" fill="url(#paint1_radial_32_2)"/>
<circle cx="257.5" cy="266.5" r="178.5" stroke="black" stroke-width="20"/>
</g>
<path d="M365.787 254.468C365.787 298.768 328.079 334.681 281.564 334.681C235.048 334.681 197.34 298.768 197.34 254.468" stroke="black" stroke-width="20"/>
<line x1="271.511" y1="190.298" x2="271.511" y2="238.426" stroke="black" stroke-width="20"/>
<line x1="335.681" y1="190.298" x2="335.681" y2="238.426" stroke="black" stroke-width="20"/>
<path d="M422.899 98.2386C427.032 100.719 428.817 102.518 429.565 103.464C428.817 104.409 427.032 106.208 422.899 108.689C415.429 113.173 403.621 117.74 387.709 121.78C356.115 129.801 311.663 134.927 262 134.927C212.337 134.927 167.885 129.801 136.291 121.78C120.379 117.74 108.571 113.173 101.101 108.689C96.9685 106.208 95.1827 104.409 94.4352 103.464C95.1827 102.518 96.9685 100.719 101.101 98.2386C108.571 93.7544 120.379 89.1875 136.291 85.1476C167.885 77.1257 212.337 72 262 72C311.663 72 356.115 77.1257 387.709 85.1476C403.621 89.1875 415.429 93.7544 422.899 98.2386Z" stroke="#5C2DD5" stroke-width="30"/>
<path d="M423.465 95.8375C425.699 97.0499 427.302 98.1252 428.419 99.0031C427.302 99.8809 425.699 100.956 423.465 102.169C415.926 106.259 404.027 110.416 388.045 114.084C356.321 121.365 311.75 126.006 262 126.006C212.25 126.006 167.679 121.365 135.955 114.084C119.973 110.416 108.074 106.259 100.535 102.169C98.3012 100.956 96.6977 99.8809 95.5806 99.0031C96.6977 98.1252 98.3012 97.0499 100.535 95.8375C108.074 91.7467 119.973 87.5906 135.955 83.9223C167.679 76.6409 212.25 72 262 72C311.75 72 356.321 76.6409 388.045 83.9223C404.027 87.5906 415.926 91.7467 423.465 95.8375Z" stroke="#7945FF" stroke-width="30"/>
<path d="M327 91.226L257 92L188 91.226C209.506 82.6912 232.955 78 257.5 78C282.045 78 305.494 82.6912 327 91.226Z" fill="black"/>
<defs>
<filter id="filter0_d_32_2" x="69" y="78" width="377" height="397" filterUnits="userSpaceOnUse" color-interpolation-filters="sRGB">
<feFlood flood-opacity="0" result="BackgroundImageFix"/>
<feColorMatrix in="SourceAlpha" type="matrix" values="0 0 0 0 0 0 0 0 0 0 0 0 0 0 0 0 0 0 127 0" result="hardAlpha"/>
<feOffset dy="20"/>
<feComposite in2="hardAlpha" operator="out"/>
<feColorMatrix type="matrix" values="0 0 0 0 0 0 0 0 0 0 0 0 0 0 0 0 0 0 1 0"/>
<feBlend mode="normal" in2="BackgroundImageFix" result="effect1_dropShadow_32_2"/>
<feBlend mode="normal" in="SourceGraphic" in2="effect1_dropShadow_32_2" result="shape"/>
</filter>
<linearGradient id="paint0_linear_32_2" x1="0" y1="0" x2="512" y2="512" gradientUnits="userSpaceOnUse">
<stop offset="0.510317" stop-color="white"/>
<stop offset="0.510417" stop-color="#F1F1F1"/>
</linearGradient>
<radialGradient id="paint1_radial_32_2" cx="0" cy="0" r="1" gradientUnits="userSpaceOnUse" gradientTransform="translate(69 78) rotate(44.7528) scale(409.772)">
<stop offset="0.0282695" stop-color="#FBEAC8"/>
<stop offset="0.754902" stop-color="#FBBC3B"/>
</radialGradient>
</defs>
</svg>
