<svg width="83" height="47" viewBox="0 0 83 47" fill="none" xmlns="http://www.w3.org/2000/svg">
<circle cx="23.5" cy="23.5" r="22" stroke="white" stroke-width="3"/>
<path d="M42 10.6915C45.9413 5.41737 52.2554 2 59.3724 2C71.317 2 81 11.6259 81 23.5C81 35.3741 71.317 45 59.3724 45C52.2554 45 45.9413 41.5826 42 36.3085" stroke="white" stroke-width="3"/>
<path d="M34 22C34 27.5228 29.299 32 23.5 32C17.701 32 13 27.5228 13 22" stroke="white" stroke-width="3"/>
<line x1="19.5" y1="14" x2="19.5" y2="20" stroke="white" stroke-width="3"/>
<line x1="27.5" y1="14" x2="27.5" y2="20" stroke="white" stroke-width="3"/>
<line x1="49" y1="22.5" x2="69" y2="22.5" stroke="white" stroke-width="3"/>
<line x1="52" y1="15.5" x2="57" y2="15.5" stroke="white" stroke-width="3"/>
<line x1="62" y1="15.5" x2="67" y2="15.5" stroke="white" stroke-width="3"/>
</svg>
