<svg width="83" height="47" viewBox="0 0 83 47" fill="none" xmlns="http://www.w3.org/2000/svg">
<circle cx="23.5" cy="23.5" r="22" stroke="white" stroke-width="3"/>
<path d="M42 10.6915C45.9413 5.41737 52.2554 2 59.3724 2C71.317 2 81 11.6259 81 23.5C81 35.3741 71.317 45 59.3724 45C52.2554 45 45.9413 41.5826 42 36.3085" stroke="white" stroke-width="3"/>
<path d="M37 22C37 27.5228 32.299 32 26.5 32C20.701 32 16 27.5228 16 22" stroke="white" stroke-width="3"/>
<path d="M73 22C73 27.5228 68.299 32 62.5 32C56.701 32 52 27.5228 52 22" stroke="white" stroke-width="3"/>
<line x1="25.5" y1="14" x2="25.5" y2="20" stroke="white" stroke-width="3"/>
<line x1="61.5" y1="14" x2="61.5" y2="20" stroke="white" stroke-width="3"/>
<line x1="33.5" y1="14" x2="33.5" y2="20" stroke="white" stroke-width="3"/>
<line x1="69.5" y1="14" x2="69.5" y2="20" stroke="white" stroke-width="3"/>
</svg>
